<?xml version="1.0" encoding="UTF-8"?>
<svg id="katman_1" data-name="katman 1" xmlns="http://www.w3.org/2000/svg" viewBox="0 0 882.54 674.46">
  <defs>
    <style>
      .cls-1 {
        fill: #3aaddf;
      }

      .cls-2 {
        fill: #66696f;
      }
    </style>
  </defs>
  <path class="cls-1" d="M5.72,2.96h55.34v112.48c1.35-1.67,2.7-3.33,4.05-5C87.41,74.61,109.72,38.78,132.03,2.96c21.74.14,43.47.29,65.21.43-27.64,44.97-55.28,89.94-82.92,134.91,30.36,44.23,60.73,88.47,91.09,132.7h-66.16c-26.53-35.49-49.42-74.09-78.19-107.7v107.7H5.72V2.96Z"/>
  <path class="cls-1" d="M581.93,2.96c38.3,3.85,82.45,34.57,85.51,75.29,2.89,38.5-5.95,79.85-45.72,94.74l-.13,3.41c43.83,72.49,87.67,144.98,131.5,217.47,23.06-32.94,46.13-65.87,69.19-98.81,20.09.34,40.17.68,60.26,1.02l-94.47,157.28c27.91,45.96,55.83,91.91,83.74,137.87-23.49,1.02-46.98,2.04-70.47,3.06-15.86-26.2-31.72-52.4-47.57-78.6-23.01,52.92-46.01,105.84-69.02,158.77l-74.72-.68c35.88-72.64,71.77-145.29,107.65-217.93-60.09-99.11-120.17-198.22-180.26-297.33v112.48h-55.34V2.96c32.02,2.35,68.36-3.17,99.84,0ZM579.52,58c-12.44-1.96-29.11,1.43-42.1,0v71.8c17.18-.39,48.06,4.54,61.38-7.15,23.85-20.94,12.68-59.6-19.27-64.65Z"/>
  <path class="cls-1" d="M861.94,72.09c-1.55,2.24-48.8,11.31-53.6,10-1.7-.47-3.23-12.96-8.53-18.24-25.75-25.64-66.76,17.42-33.66,40.67,29.71,20.86,71.66,11.68,93.74,55.13,43.13,84.89-86.61,159.48-149.18,81.39-4.75-5.92-21.81-32.44-14.52-38.24,2.35-1.87,48.19-11.66,51.36-10.93,2.04.46,5.19,11.02,7.76,14.38,27.12,35.53,91.01-16.73,31.17-40.59-16.9-6.73-30.67-7.31-47.69-17.18-99.49-57.72-3.65-193.31,88.6-133.61,11.5,7.44,43.41,44.47,34.55,57.22Z"/>
  <path class="cls-1" d="M390.54,3.23l.03,145.64c0,20.38-2.25,35.26-6.75,44.65-7.01,16.63-22.21,24.94-45.61,24.95-23.53,0-38.8-8.3-45.81-24.93-4.51-9.38-6.76-24.27-6.77-44.64l-.03-145.67h-58.97l.03,145.83c0,31.54,4.59,56.09,13.75,73.67,17.18,32.2,49.79,48.3,97.81,48.29,48.02-.01,80.56-16.12,97.6-48.33,9.15-17.58,13.72-42.14,13.71-73.67l-.03-145.78h-58.97Z"/>
  <path class="cls-2" d="M638.18,596.74c-14.08-.23-28.16-.45-42.25-.67-2.04-3.91-4.09-7.82-6.13-11.76-.01-.02-.02-.05-.03-.07-32.23-66.56-64.45-133.15-96.7-199.71-.02-.06-.05-.12-.08-.17h0s-.01-.02-.01-.02c-.08.17-.16.36-.24.53-32.28,66.68-64.58,133.34-96.88,200.02-.03.07-.07.14-.1.21h0c-1.9,3.67-3.81,7.32-5.71,10.96-14.08.22-28.16.44-42.25.67l29.2-58.09c.03-.07.07-.14.1-.21l115.53-229.92c.13-.23.24-.46.37-.7l.12.22,115.9,230.65,29.17,58.05Z"/>
  <path class="cls-2" d="M310.87,596.97c-6.77.06-13.35.24-19.72.52-12.32-59.23-24.65-118.45-36.97-177.68-7.26,12.75-14.45,25.84-21.54,39.29-27.15,51.46-49.49,101.6-67.95,149.43-31.23-62.9-62.45-125.81-93.68-188.71l-34.7,174.04c-.16,1.13-.32,2.27-.49,3.4-3.84-.07-7.71-.11-11.6-.14-8.18-.07-16.25-.05-24.22.03l56.15-288.98c7.72-1.66,5.3.99,7.39,4.22,5.15,7.99,10.74,21.54,15.24,30.71,16.22,33.11,32.15,70.24,46.67,102.01,2.97,6.51,34.99,86.69,39.59,83.05l102.34-223.3c20.42,97.41,40.83,194.81,61.25,292.22-5.76-.13-11.68-.18-17.76-.12Z"/>
</svg>